<svg viewBox="100 130 600 480" xmlns="http://www.w3.org/2000/svg">
  <g transform="translate(400, 260)">
    <defs>
      <linearGradient id="hexGrad" x1="0%" y1="0%" x2="0%" y2="100%">
        <stop offset="0%" style="stop-color:#1A1A1A;stop-opacity:1" />
        <stop offset="100%" style="stop-color:#2D2D2D;stop-opacity:1" />
      </linearGradient>
    </defs>
    
    <polygon points="0,-120 104,-60 104,60 0,120 -104,60 -104,-60" fill="url(#hexGrad)"/>
    
    <polygon points="0,-110 95,-55 95,55 0,110 -95,55 -95,-55" fill="none" stroke="#00D9A3" stroke-width="3" opacity="0.5"/>
    
    <g>
      <rect x="-5" y="-70" width="10" height="140" fill="#00F0B8" rx="5"/>
      <g fill="#00D9A3">
        <polygon points="0,-65 10,-59 10,-47 0,-41 -10,-47 -10,-59"/>
        <polygon points="0,-38 10,-32 10,-20 0,-14 -10,-20 -10,-32"/>
        <polygon points="0,-11 10,-5 10,7 0,13 -10,7 -10,-5"/>
        <polygon points="0,16 10,22 10,34 0,40 -10,34 -10,22"/>
        <polygon points="0,43 10,49 10,61 0,67 -10,61 -10,49"/>
      </g>
    </g>
    
    <g stroke="#0066CC" stroke-width="2" fill="none">
      <path d="M -10 -53 L -40 -53 L -40 -70"/>
      <path d="M 10 -53 L 40 -53 L 40 -70"/>
      <path d="M -10 -26 L -60 -26"/>
      <path d="M 10 -26 L 60 -26"/>
      <path d="M -10 1 L -40 1 L -40 20"/>
      <path d="M 10 1 L 40 1 L 40 20"/>
      <path d="M -10 28 L -70 28"/>
      <path d="M 10 28 L 70 28"/>
      <path d="M -10 55 L -40 55 L -40 70"/>
      <path d="M 10 55 L 40 55 L 40 70"/>
    </g>
    
    <g fill="#00F0B8">
      <circle cx="-40" cy="-70" r="4"/>
      <circle cx="40" cy="-70" r="4"/>
      <circle cx="-60" cy="-26" r="4"/>
      <circle cx="60" cy="-26" r="4"/>
      <circle cx="-40" cy="20" r="4"/>
      <circle cx="40" cy="20" r="4"/>
      <circle cx="-70" cy="28" r="4"/>
      <circle cx="70" cy="28" r="4"/>
      <circle cx="-40" cy="70" r="4"/>
      <circle cx="40" cy="70" r="4"/>
    </g>
  </g>
  
  <text x="400" y="520" font-family="Arial, sans-serif" font-size="50" font-weight="700" fill="#1A1A1A" text-anchor="middle" letter-spacing="1">ALIGNMENT</text>
  <text x="400" y="575" font-family="Arial, sans-serif" font-size="50" font-weight="300" fill="#0066CC" text-anchor="middle" letter-spacing="2">AUTOMATIONS</text>
</svg>
